<svg width="24" height="24" xmlns="http://www.w3.org/2000/svg"><g stroke="currentColor" stroke-width="1.5" fill="none" fill-rule="evenodd" stroke-linecap="round" stroke-linejoin="round"><path d="M6.462 7.5h11.076c.854 0 1.164.083 1.48.242.316.159.57.393.752.697.182.303.288.606.352 1.457l.634 8.378a3 3 0 0 1-2.991 3.226H6.235a3 3 0 0 1-2.991-3.226l.634-8.378c.064-.851.17-1.154.352-1.457.182-.304.436-.538.752-.697.316-.16.626-.242 1.48-.242ZM8 7.5v-.8a4.2 4.2 0 1 1 8.4 0v.8"/><path d="M8 11a4 4 0 1 0 8 0"/></g></svg>