<svg width="24" height="24" xmlns="http://www.w3.org/2000/svg"><g stroke="currentColor" stroke-width="1.5" fill="none" fill-rule="evenodd" stroke-linecap="round" stroke-linejoin="round"><path d="M4 12.9h16v6.036c0 .892-.093 1.215-.267 1.54a1.81 1.81 0 0 1-.756.757c-.326.174-.65.267-1.54.267H6.563c-.892 0-1.215-.093-1.54-.267a1.817 1.817 0 0 1-.757-.756c-.174-.326-.267-.65-.267-1.54V12.9h0Zm.816-5h14.368c.594 0 .967.093 1.293.267.326.175.582.43.756.756.174.326.267.7.267 1.293v.368c0 .594-.093.967-.267 1.293-.174.326-.43.582-.756.756-.326.174-.699.267-1.293.267H4.816c-.594 0-.967-.093-1.293-.267a1.817 1.817 0 0 1-.756-.756c-.174-.326-.267-.699-.267-1.293v-.368c0-.594.093-.967.267-1.293.174-.326.43-.581.756-.756.326-.174.699-.267 1.293-.267Z"/><path d="M12 7.9H8.135c-1.285.018-2.39-.942-2.6-2.259h0a2.773 2.773 0 0 1 .593-2.201 2.56 2.56 0 0 1 2.007-.94h.26c1.117.002 2.107.745 2.461 1.845L12 7.9Zm3.865 0H12l1.144-3.585c.368-1.091 1.356-1.82 2.461-1.815h.26c.77-.01 1.505.336 2.007.948.502.611.719 1.424.593 2.22-.229 1.309-1.329 2.253-2.6 2.232ZM12 20.4v-6.9"/></g></svg>