<svg width="24" height="24" xmlns="http://www.w3.org/2000/svg"><path d="M3 9.297A6.294 6.294 0 0 1 9.3 3l-.81 2.995M16.137 3.5h1.226c1.033 0 1.45.116 1.858.334.407.218.727.538.945.945.218.407.334.825.334 1.858v1.226c0 1.033-.116 1.45-.334 1.858a2.272 2.272 0 0 1-.945.945c-.407.218-.825.334-1.858.334h-1.226c-1.033 0-1.45-.116-1.858-.334a2.272 2.272 0 0 1-.945-.945C13.116 9.314 13 8.896 13 7.863V6.637c0-1.033.116-1.45.334-1.858.218-.407.538-.727.945-.945.407-.218.825-.334 1.858-.334Zm-9.5 9.5h1.226c1.033 0 1.45.116 1.858.334.407.218.727.538.945.945.218.407.334.825.334 1.858v1.226c0 1.033-.116 1.45-.334 1.858a2.272 2.272 0 0 1-.945.945c-.407.218-.825.334-1.858.334H6.637c-1.033 0-1.45-.116-1.858-.334a2.272 2.272 0 0 1-.945-.945c-.218-.407-.334-.825-.334-1.858v-1.226c0-1.033.116-1.45.334-1.858.218-.407.538-.727.945-.945.407-.218.825-.334 1.858-.334ZM21 14.7a6.294 6.294 0 0 1-6.3 6.297l.81-2.995" stroke="currentColor" stroke-width="1.5" fill="none" stroke-linecap="round" stroke-linejoin="round"/></svg>