<svg width="16" height="16" viewBox="0 0 16 16" xmlns="http://www.w3.org/2000/svg">
    <g fill="#FFF" fill-rule="nonzero">
        <path d="M4.176 12.775h-1.54A.624.624 0 0 1 2 12.163V6.244c0-.338.285-.612.636-.612h1.54c.351 0 .636.274.636.612v5.92a.624.624 0 0 1-.636.611zM13.506 7.934a1.113 1.113 0 0 1-.256 1.616c.15.192.239.43.239.687 0 .382-.195.721-.494.93.15.191.238.43.238.687 0 .632-.534 1.146-1.191 1.146h-3.75a5.294 5.294 0 0 1-1.803-.315l-.56-.202a.614.614 0 0 1-.413-.573V6.655c0-.155.061-.304.17-.417C6.77 5.11 7.823 3.952 7.888 3.817c.07-.142 0-1.33 0-1.33 0-.269.227-.487.506-.487 1.149 0 2.139 1.35 2.053 2.07-.087.722-.346 1.789-.346 1.789h2.708c.657 0 1.191.514 1.191 1.146 0 .382-.195.72-.494.929z"/>
    </g>
</svg>
