<svg width="24" height="24" xmlns="http://www.w3.org/2000/svg"><g stroke="currentColor" stroke-width="1.5" fill="none" fill-rule="evenodd" stroke-linecap="round" stroke-linejoin="round"><path d="M16 4.5h.513c1.56 0 2.126.162 2.696.467a3.18 3.18 0 0 1 1.324 1.324l.101.202c.24.515.366 1.117.366 2.494v8.026c0 1.56-.162 2.126-.467 2.696a3.18 3.18 0 0 1-1.324 1.324l-.202.101c-.515.24-1.117.366-2.494.366H7.487c-1.56 0-2.126-.162-2.696-.467a3.18 3.18 0 0 1-1.324-1.324l-.101-.202c-.224-.48-.349-1.037-.364-2.229L3 8.987c0-1.56.162-2.126.467-2.696a3.18 3.18 0 0 1 1.324-1.324l.202-.101c.48-.224 1.037-.349 2.229-.364L8 4.5"/><path d="M9.785 2.5h4.43c.503 0 .773.07 1.018.2.244.131.436.323.567.567.13.245.2.515.2 1.018v.43c0 .503-.07.773-.2 1.018a1.371 1.371 0 0 1-.567.567c-.245.13-.515.2-1.018.2h-4.43c-.503 0-.773-.07-1.018-.2a1.363 1.363 0 0 1-.567-.567c-.13-.245-.2-.515-.2-1.018v-.43c0-.503.07-.773.2-1.018.131-.244.323-.436.567-.567.245-.13.515-.2 1.018-.2zM8 11.5h8M8 16h5"/></g></svg>