<svg width="24" height="24" xmlns="http://www.w3.org/2000/svg"><path d="M11.901 11.5A2.743 2.743 0 0 1 9.25 8.75 2.745 2.745 0 0 1 12 6a2.754 2.754 0 0 1 2.75 2.75 2.712 2.712 0 0 1-2.637 2.75H11.9Zm.099 6c2.761 0 5-.843 5-2.5s-1.659-3.5-5-3.5-5 1.843-5 3.5 2.239 2.5 5 2.5Zm-9-9v-.372c0-1.783.186-2.43.534-3.082a3.635 3.635 0 0 1 1.512-1.512c.618-.33 1.23-.514 2.81-.532L8.5 3M21 8.5v-.372c0-1.783-.186-2.43-.534-3.082a3.635 3.635 0 0 0-1.512-1.512c-.618-.33-1.23-.514-2.81-.532L15.5 3M3 15.5v.372c0 1.783.186 2.43.534 3.082.349.652.86 1.163 1.512 1.512.618.33 1.23.514 2.81.532L8.5 21M21 15.5v.372c0 1.783-.186 2.43-.534 3.082a3.635 3.635 0 0 1-1.512 1.512c-.618.33-1.23.514-2.81.532L15.5 21" stroke="currentColor" stroke-width="1.5" fill="none" stroke-linecap="round" stroke-linejoin="round"/></svg>