<svg width="24" height="24" viewBox="0 0 24 24" fill="none" xmlns="http://www.w3.org/2000/svg">
    <path fill-rule="evenodd" clip-rule="evenodd" d="M13.7935 3.44149C14.5614 3.16933 15.4089 3.29507 16.1307 3.7701C16.9881 4.33438 17.7843 4.98392 18.5071 5.70675C19.2297 6.42934 19.8793 7.22553 20.4436 8.08292C20.9186 8.8047 21.0443 9.65229 20.7722 10.4201C20.4991 11.1904 19.8569 11.7945 18.9647 12.096L14.9107 13.4658L7.12305 20.1727C6.25678 20.9187 4.96178 20.8705 4.15339 20.0621C3.345 19.2537 3.29678 17.9587 4.04282 17.0924L10.7452 9.30992L12.1177 5.24893C12.4192 4.35678 13.0232 3.71453 13.7935 3.44149ZM14.2613 4.76105C13.9487 4.87185 13.6271 5.15523 13.444 5.69712L12.1488 9.52958L12.7121 10.0931L14.6733 7.13644C14.887 6.81427 15.3214 6.72635 15.6436 6.94005C15.9657 7.15375 16.0537 7.58816 15.84 7.91032L13.7219 11.1034L14.6831 12.065L18.5165 10.7697C19.0584 10.5865 19.3418 10.265 19.4526 9.95238C19.5643 9.63727 19.5321 9.24462 19.2741 8.85258C18.7622 8.07479 18.1729 7.35237 17.5172 6.6967C16.8613 6.04078 16.1389 5.45144 15.3611 4.93955C14.969 4.68154 14.5764 4.64935 14.2613 4.76105ZM5.10364 18.006L9.30742 13.1248L9.31229 13.1297L11.0851 14.9025L11.0907 14.9081L6.20945 19.1119C5.89846 19.3797 5.43355 19.3624 5.14334 19.0722C4.85312 18.7819 4.83581 18.317 5.10364 18.006ZM10.3022 12.1398C10.2756 12.1132 10.2474 12.0891 10.2178 12.0677L11.3688 10.7312L13.4843 12.8467L12.1477 13.9978C12.1261 13.9679 12.1019 13.9395 12.0751 13.9126L10.3022 12.1398Z" fill="currentColor"/>
    <path fill-rule="evenodd" clip-rule="evenodd" d="M5.62078 4.48737C4.33963 4.48737 3.30078 5.52576 3.30078 6.807C3.30078 8.08825 4.33963 9.12664 5.62078 9.12664C6.90193 9.12664 7.94078 8.08825 7.94078 6.807C7.94078 5.52576 6.90193 4.48737 5.62078 4.48737ZM4.70078 6.807C4.70078 6.29925 5.11253 5.88737 5.62078 5.88737C6.12903 5.88737 6.54078 6.29925 6.54078 6.807C6.54078 7.31476 6.12903 7.72664 5.62078 7.72664C5.11253 7.72664 4.70078 7.31476 4.70078 6.807Z" fill="currentColor"/>
    <path d="M17.6813 16.3447C17.4079 16.0714 16.9647 16.0714 16.6914 16.3447C16.418 16.6181 16.418 17.0613 16.6914 17.3347L17.4124 18.0557L16.6895 18.7786C16.4161 19.052 16.4161 19.4952 16.6895 19.7686C16.9628 20.042 17.4061 20.042 17.6794 19.7686L18.4023 19.0457L19.1214 19.7647C19.3947 20.0381 19.8379 20.0381 20.1113 19.7647C20.3847 19.4913 20.3847 19.0481 20.1113 18.7747L19.3923 18.0557L20.1094 17.3386C20.3828 17.0652 20.3828 16.622 20.1094 16.3486C19.8361 16.0753 19.3928 16.0753 19.1195 16.3486L18.4023 17.0658L17.6813 16.3447Z" fill="currentColor"/>
</svg>
