<svg width="44" height="18" viewBox="0 0 44 18" fill="none" xmlns="http://www.w3.org/2000/svg">
    <path fill-rule="evenodd" clip-rule="evenodd" d="M0.309152 7.06075C1.47742 7.97633 2.63137 8.93214 3.90679 9.65048C5.1753 10.365 6.48649 11.0083 7.82455 11.5388C10.5202 12.6077 13.3603 13.2526 16.2035 13.5416C22.1095 14.1419 28.0885 12.8771 33.4922 10.1594C34.5088 9.64816 35.5252 9.07945 36.5195 8.45376C36.4425 8.5922 36.365 8.73043 36.2884 8.86906C34.7911 11.579 33.4757 14.3828 32.414 17.3468C32.2505 17.8036 32.884 18.2367 33.1618 17.851C34.9268 15.4004 36.5972 12.874 38.2668 10.341C39.0721 9.11938 39.8932 7.9191 40.7662 6.75816C41.2109 6.1669 41.6538 5.57123 42.1146 4.99566C42.6585 4.31631 43.2807 3.73699 43.7552 2.98928C44.1524 2.36283 44.0306 1.3767 43.6452 0.803796C43.1949 0.134168 42.5412 -0.096471 41.816 0.0356361C39.4661 0.463532 37.0767 0.624415 34.7062 0.870493C32.2647 1.1239 29.8232 1.37731 27.3816 1.63081C26.2264 1.75064 25.2864 2.65673 25.4252 4.07406C25.563 5.48168 26.6544 6.14108 27.8092 5.97247C30.2269 5.61954 32.6445 5.2666 35.0621 4.91357C34.3557 5.4139 33.6335 5.88556 32.8964 6.32617C30.4258 7.80336 27.8714 8.88646 25.1461 9.61086C19.9958 10.98 14.567 10.8708 9.4503 9.36229C7.98427 8.93015 6.53479 8.41636 5.12523 7.78759C3.72978 7.16509 2.31342 6.56332 0.993197 5.75396C0.227717 5.28449 -0.398467 6.50617 0.309152 7.06075Z" fill="#747476"/>
</svg>
