<svg xmlns="http://www.w3.org/2000/svg" width="52" height="52" version="1.0" viewBox="0 0 120 123"><path d="M45.2 5a56 56 0 0 0-27.3 16 58.2 58.2 0 0 0 0 83.9A53.7 53.7 0 0 0 60 122.4a54 54 0 0 0 42.1-17.4c18.7-18.6 23-45 11.3-69a68.3 68.3 0 0 0-25.1-25.8A61.7 61.7 0 0 0 45.2 5zM66 35.7l5.5 12.8 13 1.2 14.3 1.2c.8.1-3.6 4.4-9.6 9.6L78.3 70l3.3 13.7c1.8 7.6 3.2 13.9 3 14-.1.1-5.4-2.9-11.8-6.7A97 97 0 0 0 60 84c-.7 0-6.2 3-12.4 6.7l-11.8 7c-.6.3-.1-2.1 4.1-20l1.8-7.7-10.8-9.4-10.8-9.4 4.2-.6c2.3-.3 8.6-.8 13.9-1.2 5.4-.4 10.2-1.2 10.6-1.8.5-.6 3-6.4 5.7-12.9A85.5 85.5 0 0 1 60 23c.3 0 3 5.7 6 12.7z"/></svg>