<svg width="44" height="18" viewBox="0 0 44 18" fill="none" xmlns="http://www.w3.org/2000/svg">
    <path fill-rule="evenodd" clip-rule="evenodd" d="M0.309152 10.9392C1.47742 10.0237 2.63137 9.06786 3.90679 8.34952C5.1753 7.63501 6.48649 6.99168 7.82455 6.4612C10.5202 5.39226 13.3603 4.74735 16.2035 4.45837C22.1095 3.85807 28.0885 5.12292 33.4922 7.84064C34.5088 8.35184 35.5252 8.92055 36.5195 9.54624C36.4425 9.4078 36.365 9.26957 36.2884 9.13094C34.7911 6.42104 33.4757 3.61723 32.414 0.653187C32.2505 0.196425 32.884 -0.236671 33.1618 0.148953C34.9268 2.59958 36.5972 5.12599 38.2668 7.65905C39.0721 8.88062 39.8932 10.0809 40.7662 11.2418C41.2109 11.8331 41.6538 12.4288 42.1146 13.0043C42.6585 13.6837 43.2807 14.263 43.7552 15.0107C44.1524 15.6372 44.0306 16.6233 43.6452 17.1962C43.1949 17.8658 42.5412 18.0965 41.816 17.9644C39.4661 17.5365 37.0767 17.3756 34.7062 17.1295C32.2647 16.8761 29.8232 16.6227 27.3816 16.3692C26.2264 16.2494 25.2864 15.3433 25.4252 13.9259C25.563 12.5183 26.6544 11.8589 27.8092 12.0275C30.2269 12.3805 32.6445 12.7334 35.0621 13.0864C34.3557 12.5861 33.6335 12.1144 32.8964 11.6738C30.4258 10.1966 27.8714 9.11354 25.1461 8.38914C19.9958 7.02 14.567 7.12919 9.4503 8.63771C7.98427 9.06985 6.53479 9.58364 5.12523 10.2124C3.72978 10.8349 2.31342 11.4367 0.993197 12.246C0.227717 12.7155 -0.398467 11.4938 0.309152 10.9392Z" fill="#747476"/>
</svg>
