<svg width="24" height="24" viewBox="0 0 24 24" fill="none" xmlns="http://www.w3.org/2000/svg">
    <path fill-rule="evenodd" clip-rule="evenodd" d="M9.25 2.99821C9.25099 3.41242 8.916 3.74901 8.50179 3.75L7.86082 3.75153C6.35462 3.76939 5.87397 3.94215 5.40001 4.19563C4.87886 4.47434 4.47434 4.87886 4.19563 5.40001C3.92892 5.89871 3.75 6.4055 3.75 8.12777V8.5C3.75 8.91421 3.41421 9.25 3 9.25C2.58579 9.25 2.25 8.91421 2.25 8.5V8.12777C2.25 6.28397 2.44238 5.49761 2.87291 4.69261C3.29142 3.91006 3.91006 3.29142 4.69261 2.87291C5.45338 2.46604 6.19796 2.27086 7.84675 2.25159L7.85372 2.25151L8.49821 2.25C8.91242 2.24901 9.24901 2.584 9.25 2.99821Z" fill="white"/>
    <path fill-rule="evenodd" clip-rule="evenodd" d="M14.75 2.99821C14.749 3.41242 15.084 3.74901 15.4982 3.75L16.1392 3.75153C17.6454 3.76939 18.126 3.94215 18.6 4.19563C19.1211 4.47434 19.5257 4.87886 19.8044 5.40001C20.0711 5.89871 20.25 6.4055 20.25 8.12777V8.5C20.25 8.91421 20.5858 9.25 21 9.25C21.4142 9.25 21.75 8.91421 21.75 8.5V8.12777C21.75 6.28397 21.5576 5.49761 21.1271 4.69261C20.7086 3.91006 20.0899 3.29142 19.3074 2.87291C18.5466 2.46604 17.802 2.27086 16.1532 2.25159L16.1463 2.25151L15.5018 2.25C15.0876 2.24901 14.751 2.584 14.75 2.99821Z" fill="white"/>
    <path fill-rule="evenodd" clip-rule="evenodd" d="M9.25 21.0018C9.25099 20.5876 8.916 20.251 8.50179 20.25L7.86082 20.2485C6.35462 20.2306 5.87397 20.0578 5.40001 19.8044C4.87886 19.5257 4.47434 19.1211 4.19563 18.6C3.92892 18.1013 3.75 17.5945 3.75 15.8722V15.5C3.75 15.0858 3.41421 14.75 3 14.75C2.58579 14.75 2.25 15.0858 2.25 15.5V15.8722C2.25 17.716 2.44238 18.5024 2.87291 19.3074C3.29142 20.0899 3.91006 20.7086 4.69261 21.1271C5.45338 21.534 6.19796 21.7291 7.84675 21.7484L7.85372 21.7485L8.49821 21.75C8.91242 21.751 9.24901 21.416 9.25 21.0018Z" fill="white"/>
    <path fill-rule="evenodd" clip-rule="evenodd" d="M14.75 21.0018C14.749 20.5876 15.084 20.251 15.4982 20.25L16.1392 20.2485C17.6454 20.2306 18.126 20.0578 18.6 19.8044C19.1211 19.5257 19.5257 19.1211 19.8044 18.6C20.0711 18.1013 20.25 17.5945 20.25 15.8722V15.5C20.25 15.0858 20.5858 14.75 21 14.75C21.4142 14.75 21.75 15.0858 21.75 15.5V15.8722C21.75 17.716 21.5576 18.5024 21.1271 19.3074C20.7086 20.0899 20.0899 20.7086 19.3074 21.1271C18.5466 21.534 17.802 21.7291 16.1532 21.7484L16.1463 21.7485L15.5018 21.75C15.0876 21.751 14.751 21.416 14.75 21.0018Z" fill="white"/>
</svg>
