<svg width="40" height="24" xmlns="http://www.w3.org/2000/svg"><path d="M6.477 6.682v2.794H9v2.815H6.477v3.567c0 .383.105.684.315.902.21.218.492.327.845.327a2.09 2.09 0 0 0 1.181-.337l.957 2.636a3.96 3.96 0 0 1-1.191.455A6.784 6.784 0 0 1 7.088 20c-1.44 0-2.545-.344-3.32-1.03-.773-.688-1.16-1.712-1.16-3.072V12.29H1V9.476h1.608l.64-2.794h3.229zm29.225 0v2.794h2.524v2.815h-2.524v3.567c0 .383.105.684.315.902.21.218.492.327.845.327a2.09 2.09 0 0 0 1.181-.337L39 19.386a3.96 3.96 0 0 1-1.191.455 6.784 6.784 0 0 1-1.496.159c-1.44 0-2.545-.344-3.32-1.03-.773-.688-1.16-1.712-1.16-3.072V12.29h-1.608V9.476h1.608l.64-2.794h3.229zM15.147 9.08v10.742h-3.869V9.08h3.869zm9.403-.178c1.37 0 2.473.396 3.308 1.189.835.792 1.252 1.988 1.252 3.587v6.144h-3.868v-5.53c0-1.466-.604-2.2-1.812-2.2-.665 0-1.198.212-1.599.635-.4.422-.6 1.057-.6 1.902v5.193h-3.868V9.08h3.258l.427 1.17c.434-.437.95-.77 1.547-1.002a5.369 5.369 0 0 1 1.955-.346zM13.214 4c1.19 0 2.157.895 2.157 2 0 1.104-.966 2-2.157 2s-2.157-.896-2.157-2c0-1.105.966-2 2.157-2z" fill="currentColor" fill-rule="evenodd"/></svg>