<svg width="12" height="12" viewBox="0 0 12 12" xmlns="http://www.w3.org/2000/svg">
    <g fill="#FFF" fill-rule="nonzero">
        <path d="M2.813 9.816H1.53c-.293 0-.53-.224-.53-.5V4.472c0-.277.237-.501.53-.501h1.283c.293 0 .53.224.53.5v4.843c0 .277-.237.501-.53.501zM10.588 5.855a.9.9 0 0 1-.213 1.322.9.9 0 0 1-.213 1.323.9.9 0 0 1 .199.562c0 .517-.445.938-.993.938H6.243c-.515 0-1.02-.087-1.502-.257l-.467-.166a.503.503 0 0 1-.344-.469v-4.3c0-.126.051-.248.142-.34.902-.924 1.78-1.87 1.835-1.981.057-.117 0-1.089 0-1.089A.41.41 0 0 1 6.327 1c.959 0 1.784 1.104 1.712 1.694-.072.59-.288 1.463-.288 1.463h2.256c.548 0 .993.42.993.938 0 .312-.163.59-.412.76z"/>
    </g>
</svg>
