<svg width="24" height="24" viewBox="0 0 24 24" xmlns="http://www.w3.org/2000/svg">
    <path d="M17.686 20.917a1.7 1.7 0 0 1-1.213-.512 1.597 1.597 0 0 1-.46-1.168c.02-.69.644-1.632 1.164-2.3a.648.648 0 0 1 1.023 0c.48.617 1.048 1.466 1.149 2.137l.015.163c.012.436-.154.858-.46 1.168-.32.327-.758.512-1.216.513l-.002-.001zm.002-3.704a.12.12 0 0 0-.095.047c-.658.844-1.042 1.57-1.054 1.992-.008.294.104.578.311.787a1.17 1.17 0 0 0 1.676 0c.207-.209.32-.493.311-.787-.012-.421-.396-1.148-1.052-1.992a.12.12 0 0 0-.097-.047zm2.189-11.406h-.434c-.22-.346-.445-1.426-.474-3.551a1.272 1.272 0 0 0-2.545 0c-.029 2.125-.254 3.206-.474 3.55h-.434c-.62.001-1.123.503-1.123 1.122v1.467c0 .62.503 1.12 1.123 1.121h.91l.13 4.986c0 .45.453 1.559 1.135 1.559.682 0 1.135-1.11 1.135-1.553l.13-4.992h.921c.62 0 1.122-.503 1.123-1.121V6.928c0-.62-.503-1.12-1.123-1.121zM16.95 2.263a.745.745 0 0 1 1.123-.655.745.745 0 0 1 .37.655c.023 1.706.164 2.89.42 3.544H16.53c.256-.653.397-1.839.42-3.544zm1.35 12.239c0 .307-.36 1.033-.608 1.033s-.608-.726-.609-1.04l-.13-4.979h1.477l-.13 4.986zm2.173-6.107a.596.596 0 0 1-.596.596h-4.361a.597.597 0 0 1-.597-.596V6.928a.595.595 0 0 1 .597-.596h4.361c.33 0 .597.267.597.596v1.467zm-10.097-.151a.767.767 0 0 1 .078 1.524l-.035.1a.625.625 0 0 0 .22.71 3.424 3.424 0 0 1 1.386 2.745v8.358A1.323 1.323 0 0 1 10.704 23h-5.38c-.73 0-1.322-.59-1.323-1.32v-8.357a3.427 3.427 0 0 1 1.386-2.744.623.623 0 0 0 .221-.713l-.035-.098a.767.767 0 0 1 .077-1.524zm-.475 1.532H6.124c.13.457-.04.946-.425 1.225a2.9 2.9 0 0 0-1.173 2.322v8.358a.796.796 0 0 0 .797.793h5.38c.439 0 .795-.355.796-.793v-8.358c0-.915-.435-1.776-1.172-2.32a1.145 1.145 0 0 1-.426-1.227zm-.366 3.46c.504 0 .913.407.913.91v5.609c0 .503-.408.91-.912.91H6.492a.913.913 0 0 1-.913-.91v-5.609c0-.503.409-.91.913-.91zm0 .525H6.493a.386.386 0 0 0-.386.385v5.609c0 .213.172.385.386.385h3.043a.386.386 0 0 0 .386-.385v-5.609a.386.386 0 0 0-.385-.385zm.842-4.992H5.649a.243.243 0 0 0 0 .481h4.728a.243.243 0 0 0 0-.481z" fill="#FFF" fill-rule="nonzero" stroke="#FFF" stroke-width=".5"/>
</svg>
